<svg xmlns="http://www.w3.org/2000/svg" viewBox="0 0 650 130" color="#A88450" role="img"><title>The Weratrean Archive</title><g transform="translate(0 5) scale(.5)"><path fill="currentColor" d="M54 83H87V85C78 85 78 87 80 93L102 151L115 116L106 93C104 87 102 85 95 85V83H126V85C117 85 116 87 118 93L140 151L158 97C161 88 159 85 150 85V83H179V85C170 86 168 89 165 98L137 172H134L117 123L98 172H95L65 95C62 88 60 86 54 85Z"/><path d="M65 77C75 58 94 51 106 50 M134 50C148 51 166 61 174 77 M56 113C55 152 77 185 106 192 M134 192C162 184 184 151 183 113" fill="none" stroke="currentColor" stroke-width="1.35" stroke-linecap="round"/><polygon fill="currentColor" points="120.00,25.00 121.14,45.24 130.08,37.92 122.76,46.86 143.00,48.00 122.76,49.14 130.08,58.08 121.14,50.76 120.00,71.00 118.86,50.76 109.92,58.08 117.24,49.14 97.00,48.00 117.24,46.86 109.92,37.92 118.86,45.24"/><polygon fill="currentColor" points="120.00,181.00 120.75,194.20 126.58,189.42 121.80,195.25 135.00,196.00 121.80,196.75 126.58,202.58 120.75,197.80 120.00,211.00 119.25,197.80 113.42,202.58 118.20,196.75 105.00,196.00 118.20,195.25 113.42,189.42 119.25,194.20"/><path d="M120 10V24 M120 215V229" fill="none" stroke="currentColor" stroke-width="1" stroke-linecap="round"/><path fill="currentColor" d="M120 73l1.5 3-1.5 3-1.5-3z"/><path fill="currentColor" d="M120 175l1.5 3-1.5 3-1.5-3z"/><path d="M49.31 86.04L37.53 80.54" fill="none" stroke="currentColor" stroke-width="1" stroke-linecap="round"/><path d="M60.25 68.86L54.89 64.36" fill="none" stroke="currentColor" stroke-width="1" stroke-linecap="round"/><path d="M75.26 55.11L67.80 44.46" fill="none" stroke="currentColor" stroke-width="1" stroke-linecap="round"/><path d="M93.32 45.70L90.93 39.13" fill="none" stroke="currentColor" stroke-width="1" stroke-linecap="round"/><path d="M113.20 41.30L112.07 28.35" fill="none" stroke="currentColor" stroke-width="1" stroke-linecap="round"/><path d="M133.54 42.18L134.76 35.29" fill="none" stroke="currentColor" stroke-width="1" stroke-linecap="round"/><path d="M152.96 48.31L158.46 36.53" fill="none" stroke="currentColor" stroke-width="1" stroke-linecap="round"/><path d="M170.14 59.25L174.64 53.89" fill="none" stroke="currentColor" stroke-width="1" stroke-linecap="round"/><path d="M183.89 74.26L194.54 66.80" fill="none" stroke="currentColor" stroke-width="1" stroke-linecap="round"/><path d="M193.30 92.32L199.87 89.93" fill="none" stroke="currentColor" stroke-width="1" stroke-linecap="round"/><path d="M193.28 157.97L203.00 163.13" fill="none" stroke="currentColor" stroke-width="1" stroke-linecap="round"/><path d="M181.68 174.54L189.86 181.90" fill="none" stroke="currentColor" stroke-width="1" stroke-linecap="round"/><path d="M166.41 187.81L172.56 196.93" fill="none" stroke="currentColor" stroke-width="1" stroke-linecap="round"/><path d="M148.39 196.99L152.15 207.33" fill="none" stroke="currentColor" stroke-width="1" stroke-linecap="round"/><path d="M91.61 196.99L87.85 207.33" fill="none" stroke="currentColor" stroke-width="1" stroke-linecap="round"/><path d="M73.59 187.81L67.44 196.93" fill="none" stroke="currentColor" stroke-width="1" stroke-linecap="round"/><path d="M58.32 174.54L50.14 181.90" fill="none" stroke="currentColor" stroke-width="1" stroke-linecap="round"/><path d="M46.72 157.97L37.00 163.13" fill="none" stroke="currentColor" stroke-width="1" stroke-linecap="round"/></g><text x="145" y="47" fill="#E6DCC4" font-family="Georgia,serif" font-size="18" letter-spacing="5">THE WERATREAN</text><text x="142" y="96" fill="#E6DCC4" font-family="Georgia,serif" font-size="48" letter-spacing="7">ARCHIVE</text></svg>
